/* XPM */
static const char * icon_xpm[] = {
"48 48 546 2",
"  	c None",
". 	c #A7A7A6",
"+ 	c #A8A8A7",
"@ 	c #AAAAA9",
"# 	c #ADADAD",
"$ 	c #B2B2B1",
"% 	c #B1B1AF",
"& 	c #ABABA8",
"* 	c #A7A7A5",
"= 	c #A7A7A4",
"- 	c #AAAAA8",
"; 	c #AFAFAD",
"> 	c #B2B2B0",
", 	c #AEAEAC",
"' 	c #A9A9A6",
") 	c #A6A6A3",
"! 	c #A5A5A1",
"~ 	c #A5A5A4",
"{ 	c #B4B4B1",
"] 	c #D4D4CD",
"^ 	c #E7E7DF",
"/ 	c #F4F4EC",
"( 	c #F9F9F1",
"_ 	c #F7F7EF",
": 	c #F5F5EC",
"< 	c #F1F2E9",
"[ 	c #EFF0EA",
"} 	c #E4E6DE",
"| 	c #C9CAC4",
"1 	c #A4A4A4",
"2 	c #A8A9A5",
"3 	c #BCBDB9",
"4 	c #C1C1BD",
"5 	c #C3C4BF",
"6 	c #C4C5BF",
"7 	c #C4C5BE",
"8 	c #C3C4BE",
"9 	c #C1C2BC",
"0 	c #BFC0BA",
"a 	c #B9BAB5",
"b 	c #B5B6B2",
"c 	c #B7B8B4",
"d 	c #B7B8B6",
"e 	c #B8B9B7",
"f 	c #B6B8B3",
"g 	c #A9A9A7",
"h 	c #BEBEB7",
"i 	c #E4E4D9",
"j 	c #F8F8ED",
"k 	c #FCFCF3",
"l 	c #FAFAEE",
"m 	c #F9F9E8",
"n 	c #F8F8E4",
"o 	c #F5F5E0",
"p 	c #F0F0DC",
"q 	c #EAEBD6",
"r 	c #E2E3D1",
"s 	c #DADCCC",
"t 	c #DADCCF",
"u 	c #E5E6E0",
"v 	c #E3E4DE",
"w 	c #D7D7D5",
"x 	c #FBFBFB",
"y 	c #FAFAFA",
"z 	c #FAFAF9",
"A 	c #9A9C98",
"B 	c #A2A2A2",
"C 	c #B9B9B3",
"D 	c #DADACB",
"E 	c #F8F8EB",
"F 	c #FCFCF4",
"G 	c #F9F9E7",
"H 	c #F7F7E2",
"I 	c #F7F7E1",
"J 	c #EAEBD5",
"K 	c #DADCCB",
"L 	c #D2D4C5",
"M 	c #C9CCBF",
"N 	c #CBCDC5",
"O 	c #D1D1CF",
"P 	c #F9F9F8",
"Q 	c #F8F8F7",
"R 	c #F7F7F6",
"S 	c #F6F6F5",
"T 	c #433749",
"U 	c #A4A3A3",
"V 	c #EFF0DC",
"W 	c #E9EBD6",
"X 	c #E1E3D0",
"Y 	c #BFC2B8",
"Z 	c #CFCFCD",
"` 	c #F5F5F4",
" .	c #F5F5F5",
"..	c #544B5A",
"+.	c #ACACA9",
"@.	c #F8F8E3",
"#.	c #EFF0DB",
"$.	c #E8EAD5",
"%.	c #BFC2B9",
"&.	c #F4F4F4",
"*.	c #F4F4F3",
"=.	c #645D6B",
"-.	c #BABAB4",
";.	c #FBFBEF",
">.	c #F4F4DF",
",.	c #ECECEB",
"'.	c #B2B2B2",
").	c #B1B1B1",
"!.	c #C9C9C8",
"~.	c #F2F2F2",
"{.	c #9A9C97",
"].	c #726E78",
"^.	c #CCCCC1",
"/.	c #FAFAEB",
"(.	c #F3F4DF",
"_.	c #EFF0D9",
":.	c #E8E9D4",
"<.	c #DADBC9",
"[.	c #D2D4C4",
"}.	c #C8CBBE",
"|.	c #BFC1B9",
"1.	c #F1F1F1",
"2.	c #D2D2D1",
"3.	c #D1D1D1",
"4.	c #D1D1D0",
"5.	c #D0D0CF",
"6.	c #CFCFCF",
"7.	c #CFCFCE",
"8.	c #DBDBDB",
"9.	c #F1F1F0",
"0.	c #989A97",
"a.	c #34273B",
"b.	c #88858B",
"c.	c #D8D8CA",
"d.	c #F3F4DE",
"e.	c #E1E3CF",
"f.	c #D1D3C4",
"g.	c #F3F3F2",
"h.	c #F0F0EF",
"i.	c #F3F3F3",
"j.	c #35273C",
"k.	c #969598",
"l.	c #E3E3D2",
"m.	c #EFF0D8",
"n.	c #F2F2F1",
"o.	c #D8D8D8",
"p.	c #D8D8D7",
"q.	c #D7D7D6",
"r.	c #D6D6D6",
"s.	c #D6D6D5",
"t.	c #D5D5D5",
"u.	c #D5D5D4",
"v.	c #D4D4D4",
"w.	c #D4D4D3",
"x.	c #D3D3D3",
"y.	c #DCDCDC",
"z.	c #EFEFEE",
"A.	c #9D9D9D",
"B.	c #EDEDD9",
"C.	c #FCFCF2",
"D.	c #F4F5DD",
"E.	c #EEEFD8",
"F.	c #E1E2CE",
"G.	c #D9DBC9",
"H.	c #D0D3C4",
"I.	c #BEC1B9",
"J.	c #CFD0CD",
"K.	c #B1B1B0",
"L.	c #B0B0B0",
"M.	c #C6C6C6",
"N.	c #EDEDED",
"O.	c #382B3F",
"P.	c #F6F6E0",
"Q.	c #FBFBEE",
"R.	c #F0F0F0",
"S.	c #EFEFEF",
"T.	c #EEEEED",
"U.	c #ECECEC",
"V.	c #483E50",
"W.	c #9E9E9D",
"X.	c #FAFAEC",
"Y.	c #F9F9EA",
"Z.	c #F4F5DC",
"`.	c #E8E9D3",
" +	c #D0D3C3",
".+	c #EEEEEE",
"++	c #EDEDEC",
"@+	c #EBEBEB",
"#+	c #564E5E",
"$+	c #A7A6A3",
"%+	c #FBFBF0",
"&+	c #F8F8E6",
"*+	c #F6F6DF",
"=+	c #F4F4DC",
"-+	c #EEEFD7",
";+	c #E8E9D2",
">+	c #E0E2CD",
",+	c #D9DBC7",
"'+	c #D0D3C2",
")+	c #C8CABE",
"!+	c #BEC1B8",
"~+	c #E7E7E6",
"{+	c #999999",
"]+	c #B6B6B6",
"^+	c #EAEAEA",
"/+	c #625D6B",
"(+	c #B6B6AF",
"_+	c #F4F4DB",
":+	c #E7E8D2",
"<+	c #F8F8F8",
"[+	c #E9E9E8",
"}+	c #E8E8E7",
"|+	c #E7E7E7",
"1+	c #E6E6E5",
"2+	c #E5E5E5",
"3+	c #E4E4E4",
"4+	c #E4E4E3",
"5+	c #E3E3E2",
"6+	c #E2E2E2",
"7+	c #E1E1E1",
"8+	c #E1E1E0",
"9+	c #E0E0E0",
"0+	c #DFDFDF",
"a+	c #35283C",
"b+	c #716D77",
"c+	c #C9C9BD",
"d+	c #FBFBF2",
"e+	c #EEEFD6",
"f+	c #E9E9E9",
"g+	c #E8E8E8",
"h+	c #35273D",
"i+	c #817F85",
"j+	c #D4D4C5",
"k+	c #F6F6DE",
"l+	c #F3F3DA",
"m+	c #EEEED6",
"n+	c #E6E7D1",
"o+	c #E0E2CC",
"p+	c #D8DBC7",
"q+	c #D0D2C2",
"r+	c #C8CABD",
"s+	c #B7B7B7",
"t+	c #B7B7B6",
"u+	c #B6B6B5",
"v+	c #B5B5B5",
"w+	c #B5B5B4",
"x+	c #B4B4B4",
"y+	c #B3B3B3",
"z+	c #C5C5C5",
"A+	c #989A95",
"B+	c #35273B",
"C+	c #8B8A8D",
"D+	c #E0E0CF",
"E+	c #F9F9E9",
"F+	c #F6F6DD",
"G+	c #EEEED5",
"H+	c #E0E2CB",
"I+	c #CFD0CC",
"J+	c #C8C8C8",
"K+	c #C8C8C7",
"L+	c #C7C7C6",
"M+	c #C6C6C5",
"N+	c #C4C4C4",
"O+	c #C4C4C3",
"P+	c #C3C3C3",
"Q+	c #C2C2C2",
"R+	c #979895",
"S+	c #35283D",
"T+	c #8E8D8E",
"U+	c #F8F8E5",
"V+	c #F3F3D9",
"W+	c #EDEED6",
"X+	c #E7E8D1",
"Y+	c #CECFCC",
"Z+	c #EBEBEA",
"`+	c #E5E5E4",
" @	c #91918F",
".@	c #3C3247",
"+@	c #8D8D8D",
"@@	c #EDEED5",
"#@	c #DFE1CB",
"$@	c #D8DBC6",
"%@	c #C7CABD",
"&@	c #BDC0B8",
"*@	c #D9D9D8",
"=@	c #D7D7D7",
"-@	c #D2D2D2",
";@	c #D2D2D0",
">@	c #E5E5E3",
",@	c #878789",
"'@	c #494052",
")@	c #939291",
"!@	c #FBFBF1",
"~@	c #F6F6DC",
"{@	c #ECEDD5",
"]@	c #E7E8D0",
"^@	c #A5A5A5",
"/@	c #A4A4A3",
"(@	c #BABAB9",
"_@	c #E4E4E2",
":@	c #818081",
"<@	c #32253C",
"[@	c #544D5D",
"}@	c #9D9D99",
"|@	c #FAFAED",
"1@	c #F5F5DB",
"2@	c #F3F3D8",
"3@	c #ECEDD3",
"4@	c #E7E8CF",
"5@	c #D8DAC7",
"6@	c #CFD2C2",
"7@	c #BDC0B7",
"8@	c #E6E6E6",
"9@	c #E4E4E1",
"0@	c #E3E3E0",
"a@	c #797779",
"b@	c #34273E",
"c@	c #5D5967",
"d@	c #AFAFA7",
"e@	c #F8F8E8",
"f@	c #F8F8E7",
"g@	c #F4F5E6",
"h@	c #F1F1E2",
"i@	c #E9EBDC",
"j@	c #E2E3D4",
"k@	c #D2D5C6",
"l@	c #E6E6E4",
"m@	c #E3E3E1",
"n@	c #E3E3DF",
"o@	c #747075",
"p@	c #34273C",
"q@	c #6C6973",
"r@	c #C4C4B8",
"s@	c #FAFAF2",
"t@	c #F1F1E8",
"u@	c #E4E4DB",
"v@	c #D8D8CF",
"w@	c #CFCFC5",
"x@	c #C8C8BF",
"y@	c #C5C5BC",
"z@	c #D3D3C5",
"A@	c #DBDCCE",
"B@	c #E5E5D9",
"C@	c #ECEDE7",
"D@	c #E2E3DC",
"E@	c #C4C7BF",
"F@	c #CFCFCC",
"G@	c #E2E2DF",
"H@	c #E2E2DE",
"I@	c #EFEFED",
"J@	c #6F6B71",
"K@	c #7A797E",
"L@	c #D4D4C6",
"M@	c #FCFCF5",
"N@	c #F6F6EF",
"O@	c #E3E3DD",
"P@	c #C3C3BD",
"Q@	c #9F9F9D",
"R@	c #888887",
"S@	c #8B8B89",
"T@	c #90908D",
"U@	c #92938E",
"V@	c #949591",
"W@	c #989A96",
"X@	c #949691",
"Y@	c #92928E",
"Z@	c #8C8C88",
"`@	c #8C8C8A",
" #	c #C6C6BD",
".#	c #E9EAE6",
"+#	c #D3D4D2",
"@#	c #EAEAE9",
"##	c #6D686F",
"$#	c #362A3F",
"%#	c #838284",
"&#	c #E6E6D7",
"*#	c #F3F3ED",
"=#	c #D5D5D0",
"-#	c #A8A8A6",
";#	c #8B8B8A",
">#	c #8A8B88",
",#	c #91948F",
"'#	c #A4A7A0",
")#	c #B0B4AB",
"!#	c #ADB0A7",
"~#	c #A9ACA4",
"{#	c #A5A9A0",
"]#	c #A4A99F",
"^#	c #A3A89F",
"/#	c #A7ABA2",
"(#	c #AAAEA6",
"_#	c #AFB4AB",
":#	c #AAAEA5",
"<#	c #8A8B87",
"[#	c #898988",
"}#	c #CBCBCA",
"|#	c #E8E8E6",
"1#	c #E8E8E5",
"2#	c #E7E7E4",
"3#	c #E6E6E3",
"4#	c #E6E6E2",
"5#	c #6B686D",
"6#	c #382D42",
"7#	c #858585",
"8#	c #929291",
"9#	c #8F8F8E",
"0#	c #878985",
"a#	c #9A9D96",
"b#	c #AEB2A9",
"c#	c #ADB1A8",
"d#	c #A5A89F",
"e#	c #9EA298",
"f#	c #9A9E94",
"g#	c #9A9F94",
"h#	c #9BA095",
"i#	c #9DA197",
"j#	c #9FA399",
"k#	c #A0A59B",
"l#	c #A2A69C",
"m#	c #A3A79D",
"n#	c #A6AAA1",
"o#	c #AEB1A9",
"p#	c #AEB1AA",
"q#	c #888986",
"r#	c #ACADAA",
"s#	c #D4D5D3",
"t#	c #D0D1CE",
"u#	c #D0D0CE",
"v#	c #D0D0CD",
"w#	c #CECFCD",
"x#	c #CECECC",
"y#	c #5C5760",
"z#	c #443C4D",
"A#	c #7C7C7B",
"B#	c #959891",
"C#	c #B2B6AD",
"D#	c #B3B6AE",
"E#	c #A5A99F",
"F#	c #A7ABA1",
"G#	c #A9ACA3",
"H#	c #ABAEA6",
"I#	c #ABAFA6",
"J#	c #ACB0A6",
"K#	c #ADB0A8",
"L#	c #A9ADA4",
"M#	c #ADB2A9",
"N#	c #B0B2AB",
"O#	c #9A9B96",
"P#	c #828481",
"Q#	c #7A7B79",
"R#	c #797A79",
"S#	c #7D7F7C",
"T#	c #91948E",
"U#	c #A6A9A2",
"V#	c #A7AAA2",
"W#	c #A9ACA5",
"X#	c #AAADA6",
"Y#	c #ACAEA7",
"Z#	c #ACAFA8",
"`#	c #ACAFA9",
" $	c #ADB0AA",
".$	c #ADB1AA",
"+$	c #AFB2AC",
"@$	c #AEB1AB",
"#$	c #AFB2AB",
"$$	c #9E9F9A",
"%$	c #7A7A79",
"&$	c #33253B",
"*$	c #4E4859",
"=$	c #757773",
"-$	c #A4A79F",
";$	c #A0A39C",
">$	c #9C9F97",
",$	c #979B93",
"'$	c #939790",
")$	c #8E918A",
"!$	c #8B8C87",
"~$	c #8A8B86",
"{$	c #888985",
"]$	c #878885",
"^$	c #8E908A",
"/$	c #9A9C95",
"($	c #959993",
"_$	c #727370",
":$	c #616068",
"<$	c #4C4A5D",
"[$	c #443F59",
"}$	c #727470",
"|$	c #969A93",
"1$	c #9B9D96",
"2$	c #8F918C",
"3$	c #888886",
"4$	c #8B8C88",
"5$	c #8B8D89",
"6$	c #8E8F8B",
"7$	c #969792",
"8$	c #9A9D97",
"9$	c #9FA29C",
"0$	c #A9ACA6",
"a$	c #B1B4AC",
"b$	c #B6B8B1",
"c$	c #7E7F7D",
"d$	c #595660",
"e$	c #71726E",
"f$	c #70706E",
"g$	c #6F6F6E",
"h$	c #6D6E6D",
"i$	c #6C6C6D",
"j$	c #68686B",
"k$	c #646369",
"l$	c #5F5D66",
"m$	c #585663",
"n$	c #545261",
"o$	c #525060",
"p$	c #535261",
"q$	c #5D5C66",
"r$	c #70716F",
"s$	c #6C6B6C",
"t$	c #49445C",
"u$	c #3F3A57",
"v$	c #3D3856",
"w$	c #6C6C6C",
"x$	c #5F5E66",
"y$	c #545160",
"z$	c #565562",
"A$	c #5E5C66",
"B$	c #65636A",
"C$	c #6A686D",
"D$	c #6D6E6E",
"E$	c #706F6F",
"F$	c #707170",
"G$	c #71716F",
"H$	c #433D56",
"I$	c #44405A",
"J$	c #433F59",
"K$	c #444059",
"L$	c #3A3043",
"M$	c #372C40",
"N$	c #3F3951",
"O$	c #433E58",
"P$	c #34263B",
"Q$	c #372C3F",
"R$	c #3F3844",
"S$	c #382C3F",
"T$	c #36293E",
"U$	c #382D3F",
"                                                                                                ",
"                                                                                                ",
"                                                                                                ",
"                                                                                                ",
"                                                                                                ",
"                                                                                                ",
"                                                                                                ",
"                            . + @ # $ % & *         = - ; > , ' ) !                             ",
"                    + ~ { ] ^ / ( _ : < [ } | 1 2 3 4 5 6 7 7 6 8 9 0 a b b c d e e e e e f     ",
"              g ~ h i j k l m n o p q r s t u v w x y y y y y y y y y y y y y y y y y y z y A   ",
"          B C D E F l G H I I I o p J r K L M N O P Q Q Q Q Q Q Q Q Q Q Q Q Q Q Q Q Q R S S A   ",
"        T U I I k n I I I I I I o V W X K L M Y Z P Q Q Q Q Q Q Q Q Q Q Q Q Q Q Q R S S `  .A   ",
"        ..+.I @.k I I I I I I I o #.$.X K L M %.Z P Q Q Q Q Q Q Q Q Q Q Q Q Q R R S ` &.*. .A   ",
"        =.-.I G ;.I I I I I I I >.#.$.X K L M %.Z P ,.'.'.'.'.'.'.'.'.'.'.'.'.$ ).).).!.~.` {.  ",
"        ].^.I /./.I I I I I I I (._.:.X <.[.}.|.Z P 1.2.2.2.2.2.2.2.2.2.3.3.4.5.6.6.7.8.9.&.0.  ",
"      a.b.c.I ;.G I I I I I I I d._.:.e.<.f.}.|.Z P Q Q Q Q Q Q Q Q Q R S  .` *.g.~.1.9.h.i.0.  ",
"      j.k.l.I k @.I I I I I I I d.m.:.e.<.f.}.|.Z P n.o.o.o.o.o.o.p.p.q.r.s.t.u.v.w.x.y.z.i.0.  ",
"      j.A.B.n C.I I I I I I I I D.E.:.F.G.H.}.I.J.P ,.'.'.'.'.'.'.$ ).).).).K.L.L.L.L.M.N.g.0.  ",
"      O.A.P.m Q.I I I I I I I P.D.E.:.F.G.H.}.I.J.P Q Q Q Q R S S ` *.i.g.n.9.R.S.z.T.N.U.~.0.  ",
"      V.W.I X.Y.I I I I I I I P.Z.E.`.F.G. +}.I.J.P Q Q Q R S ` &.*.g.n.1.9.h.z..+N.++,.@+1.0.  ",
"      #+$+I %+&+I I I I I I I *+=+-+;+>+,+'+)+!+J.P ~+{+{+{+{+{+{+{+{+{+{+{+{+{+{+{+{+]+^+1.0.  ",
"      /+(+I F H I I I I I I I *+_+-+:+>+,+'+)+!+J.<+` [+}+|+|+~+1+2+3+4+5+6+7+7+8+9+0+6+[+1.0.  ",
"    a+b+c+n d+I I I I I I I I *+_+e+:+>+,+'+)+!+J.Q  .` *.g.~.n.9.h.S..+T.++U.@+^+^+f+g+|+1.0.  ",
"    h+i+j+m l I I I I I I I I k+l+m+n+o+p+q+r+!+Z R [+s+s+t+]+]+]+u+v+v+v+w+x+x+x+y+y+z+~+R.A+  ",
"    B+C+D+X.E+I I I I I I I P.F+l+G+n+H+p+q+r+!+I+S ,.J+J+K+L+M.M.M+z+z+N+N+O+P+P+Q+Q+6.1+h.R+  ",
"    S+T+B.%+U+I I I I I I I P.F+V+W+X+H+p+q+r+!+Y+` n.9.R.S.z.T.N.U.,.Z+^+f+g+g+|+~+1+1+`+h. @  ",
"    .@+@I F H I I I I I I I *+F+V+@@X+#@$@q+%@&@Y+i.++*@o.o.=@q.r.t.t.u.v.x.-@-@-@2.;@q.>@S.,@  ",
"    '@)@U+!@I I I I I I I I *+~@V+{@]@#@$@q+%@&@Y+i.7+^@^@^@1 1 1 1 1 1 1 1 1 1 1 /@/@(@_@S.:@  ",
"  <@[@}@E+|@I I I I I I I I k+1@2@3@4@#@5@6@%@7@Y+n..+N.++,.@+^+f+f+g+|+~+8@1+`+>@>@_@9@0@z.a@  ",
"  b@c@d@|@E+I I I I I H U+e@E+E+f@g@h@i@j@k@%@7@Y+9.N.U.@+Z+^+f+g+|+|+~+1+l@`+>@_@_@m@0@n@z.o@  ",
"  p@q@r@!@U+I H G |@!@s@t@u@v@w@x@y@z@A@B@C@D@E@F@S.,.@+^+f+[+g+|+~+8@1+`+>@>@_@9@0@0@G@H@I@J@  ",
"  S+K@L@M@E+;.N@O@P@Q@R@S@T@U@V@A+W@X@Y@Z@`@ #.#+#S.^+@#f+g+|+|+8@1+l@`+>@_@9@m@0@n@H@H@H@I@##  ",
"  $#%#&#*#=#-#;#>#,#'#)#!#~#{#]#^#{#/#(#_#:#<#[#}#1.U.@+@+^+@#[+[+g+}+}+|#1#2#2#3#4#4#4#4#n.5#  ",
"  6#7#8#9#0#a#b#c#d#e#f#g#h#i#e#j#k#l#m#n#o#p#q#r#s#4.t#t#t#t#t#t#t#t#t#u#u#u#v#v#w#x#x#x#Z y#  ",
"  z#A#B#C#D#c#E#m#{#F#G#H#I#J#K#I#L#/#M#N#O#P#Q#R#S#T#U#~#V#W#X#Y#Z#`# $.$+$@$@$@$@$@$#$$$%$z#  ",
"&$*$=$E#)#V#-$;$>$,$'$)$!$~${$]$^$/$Y#($_$:$<$[$[$<$:$}$|$`#1$2$3$q#4$5$6$7$8$9$'#0$ $a$b$c$*$&$",
"h+d$e$f$g$h$i$j$k$l$m$n$o$o$o$o$p$q$r$s$t$u$v$v$v$v$u$t$w$r$x$y$o$o$o$o$p$z$A$B$C$D$E$F$G$e$d$h+",
"a+H$I$J$J$J$J$J$J$J$J$J$J$J$J$J$J$J$K$L$M$N$O$J$J$O$N$M$L$K$J$J$J$J$J$J$J$J$J$J$J$J$J$J$J$I$H$a+",
"P$j.j.j.j.j.j.j.j.j.j.j.j.j.j.j.j.j.j.Q$R$S$a+T$T$a+S$R$U$j.j.j.j.j.j.j.j.j.j.j.j.j.j.j.j.j.j.P$",
"                                                                                                ",
"                                                                                                ",
"                                                                                                ",
"                                                                                                ",
"                                                                                                ",
"                                                                                                ",
"                                                                                                ",
"                                                                                                ",
"                                                                                                "};
